<svg width="232" height="232" viewBox="0 0 232 232" fill="none" xmlns="http://www.w3.org/2000/svg">
<g clip-path="url(#clip0_6_2)">
<path d="M228.992 138.629C220.902 125.189 221.812 103.789 229.482 96.3695C231.902 110.679 231.552 124.369 228.992 138.629Z" fill="#FFF4E9"/>
<path d="M203.452 43.3495C199.542 47.6095 195.192 51.4495 190.942 55.3895C190.402 55.8995 189.432 55.9295 189.072 56.0495C186.982 56.0895 185.662 55.4295 184.882 54.0195C183.842 52.1195 183.882 50.0795 185.202 48.3895C188.472 44.1895 192.302 40.5195 196.422 37.1595C198.552 35.4295 200.172 36.8195 201.482 38.4395C202.622 39.8695 205.342 41.2895 203.452 43.3495Z" fill="#FFF4E9"/>
<path d="M213.022 104.659C210.792 114.469 211.452 124.169 214.372 133.729C216.222 139.769 217.652 146.029 220.292 151.719C223.742 159.099 220.982 164.739 216.252 171.809C211.202 151.359 201.132 133.639 202.222 113.129C202.972 99.1895 207.692 86.8295 216.842 76.2895C218.262 74.6495 219.432 71.3295 222.592 73.0195C225.062 74.3495 225.622 80.5595 223.662 82.9095C218.342 89.3095 214.852 96.5695 213.022 104.659Z" fill="#FFF4E9"/>
<path d="M215.182 61.3695C214.462 62.4595 213.332 63.2695 212.382 64.2095C198.122 78.3095 190.942 95.6495 189.252 115.399C188.852 120.069 190.172 124.649 191.302 129.179C195.492 145.989 201.492 162.259 206.712 178.749C208.332 183.859 206.962 187.359 203.592 190.839C201.662 192.829 200.552 192.489 199.802 189.989C198.752 186.479 197.722 182.969 196.702 179.459C191.612 161.879 184.622 144.869 180.942 126.869C180.242 123.459 179.832 119.979 179.412 117.319C181.342 92.2995 190.072 71.3095 208.352 54.7995C209.562 53.7095 211.032 51.2995 212.802 53.5595C214.502 55.7095 217.422 57.9395 215.182 61.3695Z" fill="#FFF4E9"/>
<path d="M186.402 207.239C184.172 208.719 182.772 208.679 182.112 205.799C176.132 179.999 165.222 155.629 159.972 129.619C159.112 125.389 158.722 121.069 158.262 117.849C159.172 102.339 162.072 88.4095 168.102 75.2195C169.432 72.3095 171.312 69.6995 174.972 71.3595C178.532 72.9795 178.042 76.0995 176.812 79.0895C172.852 88.6795 170.112 98.5395 168.652 108.849C167.242 118.699 169.102 128.069 171.582 137.409C176.972 157.679 184.602 177.279 190.042 197.539C191.252 202.069 190.012 204.839 186.402 207.239Z" fill="#FFF4E9"/>
<path d="M188.252 25.8595C185.302 21.8395 181.972 21.4695 178.322 24.8995C164.122 38.2395 153.452 53.9795 146.472 72.1695C144.632 76.9795 143.232 81.9695 141.552 86.8495C141.192 87.9195 141.292 89.9695 139.142 88.8895C135.652 87.1495 132.172 78.1595 133.472 74.3295C140.542 53.4695 151.762 35.1795 167.302 19.5295C168.702 18.1095 171.642 16.9895 170.452 14.4995C169.462 12.4295 166.742 11.7795 164.502 11.1595C161.912 10.4395 160.602 12.6395 159.152 14.1295C143.572 30.1495 132.182 48.7495 124.792 69.8395C123.162 74.4895 121.822 74.7395 115.232 72.7195C110.702 71.3295 113.182 68.4395 113.922 66.3195C121.082 45.7795 131.802 27.3095 146.292 11.0395C147.622 9.54946 150.402 8.18946 149.272 5.84946C148.332 3.90946 145.482 4.19946 143.432 3.60946C140.352 2.72946 138.862 4.92946 137.242 6.79946C122.162 24.1295 110.552 43.6095 104.282 65.6495C101.682 74.7795 94.5725 77.3295 88.6225 82.5395C87.5425 79.5395 88.6825 77.3395 89.2325 75.1695C95.5325 50.4695 106.342 27.9495 121.782 7.63946C123.232 5.71946 126.482 4.25946 125.112 1.15946C124.352 -0.560543 115.772 0.519457 113.902 2.38946C112.962 3.32946 112.182 4.42946 111.392 5.49946C103.182 16.6995 96.1525 28.5995 90.7325 41.3795C75.5925 77.0495 69.5125 113.729 78.2625 152.149C84.1225 177.869 94.4325 202.249 100.622 227.849C100.742 228.329 100.942 228.809 101.202 229.229C103.022 232.129 105.892 231.459 108.402 230.979C111.282 230.439 110.552 228.099 110.052 226.149C108.812 221.309 107.632 216.449 106.232 211.659C100.452 191.999 92.9925 172.859 88.3925 152.849C85.8525 141.839 83.6325 130.769 83.9425 117.819C87.0225 121.209 88.8925 123.769 91.2525 125.729C93.9725 127.999 95.0825 130.379 94.4425 133.949C93.7125 138.039 93.4725 142.219 93.1225 146.359C92.8325 149.709 93.8625 152.369 97.5425 153.089C99.6525 153.509 100.662 154.809 101.172 156.719C107.412 180.059 116.692 202.489 121.842 226.149C122.592 229.599 123.762 231.629 127.812 230.829C132.052 229.979 131.942 227.429 131.222 224.099C128.412 211.219 124.392 198.689 120.372 186.159C117.412 176.969 114.552 167.739 111.762 158.489C111.272 156.869 110.252 154.919 112.572 153.639C116.422 151.519 122.132 153.679 123.402 157.929C129.832 179.469 137.932 200.509 142.632 222.559C143.232 225.359 144.032 227.829 147.842 226.839C151.202 225.969 153.002 224.619 152.092 220.539C149.912 210.769 147.012 201.219 144.222 191.629C138.782 172.969 130.752 155.019 129.252 135.259C128.932 131.039 129.192 127.739 132.822 125.249C134.012 124.419 134.772 122.389 136.372 122.909C137.942 123.409 137.592 125.479 137.822 126.869C143.072 157.899 156.592 186.609 163.152 217.269C163.662 219.669 164.992 219.989 167.212 219.239C171.722 217.709 172.682 215.059 171.562 210.419C166.012 187.559 157.652 165.559 151.122 142.999C145.512 123.619 146.252 104.539 152.062 85.4195C158.552 64.0495 169.832 45.6895 186.352 30.5895C187.662 29.3995 190.202 28.5295 188.252 25.8595ZM128.422 122.139C124.142 125.569 122.592 128.809 123.992 133.999C124.802 137.019 124.822 140.249 125.162 143.389C125.472 146.299 124.182 147.779 121.202 147.749C117.872 147.709 114.542 147.749 111.212 147.749C108.222 147.749 105.222 147.729 102.232 147.769C99.2025 147.809 98.0525 146.419 98.4725 143.399C99.0525 139.289 99.2625 135.119 99.9525 131.019C100.522 127.649 99.4125 125.589 96.7025 123.459C82.1625 111.999 83.4225 90.4495 98.9825 81.3395C110.242 74.7395 124.792 77.8095 132.392 88.3795C140.042 99.0295 138.622 113.969 128.422 122.149V122.139Z" fill="#FFF4E9"/>
<path d="M21.4325 230.919C18.6025 231.689 14.4325 232.579 13.2325 228.549C8.13246 211.439 -0.497536 195.249 0.0224638 176.659C0.352464 165.199 0.0824638 153.729 0.0824638 142.259C4.03246 170.929 13.1125 198.179 22.0425 225.469C22.6425 227.279 24.6325 230.039 21.4325 230.919Z" fill="#FFF4E9"/>
<path d="M62.7625 231.189C59.8925 231.409 57.8525 230.649 56.9425 227.639C49.6925 203.609 40.6525 180.099 35.9325 155.329C35.7125 154.189 35.4525 153.049 35.3925 151.889C35.2725 149.279 36.2325 147.249 39.0225 146.739C41.9725 146.209 43.7725 147.689 44.6025 150.469C44.7025 150.789 44.7625 151.119 44.8225 151.439C49.3225 174.889 57.5625 197.249 64.6025 219.959C65.2425 222.019 65.7725 224.119 66.4625 226.169C67.6625 229.759 66.8425 231.739 62.7625 231.189Z" fill="#FFF4E9"/>
<path d="M83.1025 30.7295C69.4825 59.6495 62.0325 89.9295 62.7825 122.039C63.2425 142.239 68.3825 161.529 74.2425 180.679C78.8225 195.639 83.5525 210.569 88.1025 225.549C88.6525 227.369 90.4125 230.229 87.1625 230.959C84.1425 231.649 80.1925 232.549 78.9025 227.899C70.8525 199.059 59.2525 171.199 54.8425 141.349C53.6225 133.099 52.9225 124.809 53.0425 116.429C53.8725 76.0195 65.1825 38.7295 86.6425 4.48946C88.9525 0.799457 93.9125 -0.960543 97.9225 0.529457C101.282 1.78946 98.6825 3.52946 97.9025 4.69946C92.3425 13.0195 87.3725 21.6595 83.1025 30.7295Z" fill="#FFF4E9"/>
<path d="M72.9625 4.73946C68.4725 12.3495 64.3725 20.1595 60.8725 28.2795C48.4225 57.2295 41.1325 87.2595 41.6525 118.959C41.7225 122.769 42.2925 127.589 36.9725 127.869C31.1125 128.179 32.3925 122.939 32.0825 119.369C31.8525 116.719 32.0325 114.039 32.0325 111.379C33.5025 73.7695 43.4325 38.5395 61.3525 5.46946C63.4925 1.51946 66.2225 -0.030544 70.5625 0.329456C73.9225 0.609456 74.7025 1.77946 72.9625 4.73946Z" fill="#FFF4E9"/>
<path d="M43.3325 231.059C39.6925 232.609 35.8125 230.839 34.6325 226.999C29.8125 211.409 24.4025 196.019 20.0425 180.279C14.3625 159.789 11.2025 138.969 10.5625 117.739C10.4725 114.929 10.8525 112.099 11.0125 109.269C12.1925 77.9895 19.1225 47.9895 31.2925 19.1695C31.9325 17.6495 32.6325 16.0995 33.5825 14.7595C34.8625 12.9595 36.7525 12.3195 38.8725 13.1595C41.0025 13.9895 42.0425 15.7395 41.6725 17.9195C41.3425 19.8595 40.6325 21.7595 39.8625 23.5895C27.6125 52.6095 20.8925 82.9095 20.2825 114.339C19.7925 139.499 24.8525 163.989 32.2925 187.969C36.1425 200.369 40.2025 212.699 44.0225 225.109C44.6125 227.029 46.7625 229.599 43.3325 231.059Z" fill="#FFF4E9"/>
<path d="M24.1725 6.60946C11.8325 33.2895 4.18245 61.2695 0.172454 90.4895C0.172454 75.5095 0.0624544 60.5295 0.262454 45.5595C0.302454 42.6395 1.38245 39.6895 2.24245 36.8395C5.30245 26.7895 9.00245 16.9795 13.2525 7.37946C13.9925 5.69946 14.6425 3.90946 15.7625 2.49946C18.2525 -0.650541 22.0425 -0.370541 24.8725 1.02946C27.5825 2.36946 24.9725 4.87946 24.1725 6.60946Z" fill="#FFF4E9"/>
</g>
<defs>
<clipPath id="clip0_6_2">
<rect width="231.118" height="231.619" fill="white"/>
</clipPath>
</defs>
</svg>
