<?xml version="1.0" encoding="UTF-8"?>
<svg id="Capa_2" data-name="Capa 2" xmlns="http://www.w3.org/2000/svg" viewBox="0 0 927.97 231.62">
  <defs>
    <style>
      .cls-1 {
        fill: #fff4e9;
      }
    </style>
  </defs>
  <g id="Capa_1-2" data-name="Capa 1">
    <g>
      <g>
        <path class="cls-1" d="M353.96,169.09c1.54,1.81,2.31,4.18,2.31,7.12,0,3.61-1.97,6.66-5.92,9.13-3.95,2.48-8.4,3.71-13.34,3.71-8.3,0-15.29-1.77-20.97-5.32-5.69-3.54-8.53-11.07-8.53-22.58v-55.38h-9.23c-3.21,0-5.89-1.07-8.03-3.21-2.14-2.14-3.21-4.82-3.21-8.03s1.07-5.65,3.21-7.73c2.14-2.07,4.82-3.11,8.03-3.11h9.23v-12.84c0-3.48,1.17-6.39,3.51-8.73s5.25-3.51,8.73-3.51,6.15,1.17,8.43,3.51c2.27,2.34,3.41,5.25,3.41,8.73v12.84h14.25c3.21,0,5.89,1.07,8.03,3.21,2.14,2.14,3.21,4.82,3.21,8.03s-1.07,5.65-3.21,7.73c-2.14,2.08-4.82,3.11-8.03,3.11h-14.25v54.38c0,2.81,.73,4.85,2.21,6.12,1.47,1.27,3.48,1.91,6.02,1.91,1.07,0,2.54-.27,4.41-.8,1.61-.67,3.14-1,4.62-1,1.87,0,3.58,.9,5.12,2.71Z"/>
        <path class="cls-1" d="M467.44,85.21c2.27,2.34,3.41,5.25,3.41,8.73v50.97c0,14.45-3.98,25.75-11.94,33.91-7.96,8.16-19.3,12.24-34.01,12.24s-26.02-4.08-33.91-12.24c-7.9-8.16-11.84-19.46-11.84-33.91v-50.97c0-3.48,1.14-6.39,3.41-8.73,2.27-2.34,5.15-3.51,8.63-3.51s6.35,1.17,8.63,3.51c2.27,2.34,3.41,5.25,3.41,8.73v50.97c0,8.16,1.81,14.22,5.42,18.16,3.61,3.95,9.03,5.92,16.25,5.92s12.84-1.97,16.45-5.92c3.61-3.94,5.42-10,5.42-18.16v-50.97c0-3.48,1.14-6.39,3.41-8.73,2.27-2.34,5.15-3.51,8.63-3.51s6.35,1.17,8.63,3.51Z"/>
        <path class="cls-1" d="M592.46,43.97c2.27,2.28,3.41,5.22,3.41,8.83v124.01c0,3.48-1.14,6.39-3.41,8.73-2.28,2.34-5.15,3.51-8.63,3.51s-6.32-1.13-8.53-3.41c-2.21-2.27-3.38-5.15-3.51-8.63-3.35,3.88-7.86,7.19-13.54,9.93-5.69,2.74-11.67,4.11-17.96,4.11-9.23,0-17.59-2.37-25.08-7.12-7.49-4.75-13.41-11.34-17.76-19.77-4.35-8.43-6.52-17.99-6.52-28.7s2.14-20.3,6.42-28.8c4.28-8.49,10.13-15.12,17.56-19.87,7.42-4.75,15.62-7.12,24.58-7.12,6.42,0,12.44,1.17,18.06,3.51,5.62,2.34,10.37,5.32,14.25,8.93V52.8c0-3.48,1.14-6.39,3.41-8.73,2.27-2.34,5.15-3.51,8.63-3.51s6.35,1.14,8.63,3.41Zm-27.89,115.49c5.48-6.35,8.23-14.35,8.23-23.98s-2.74-17.66-8.23-24.08c-5.49-6.42-12.58-9.63-21.27-9.63s-15.59,3.21-21.07,9.63c-5.49,6.42-8.23,14.45-8.23,24.08s2.71,17.63,8.13,23.98c5.42,6.36,12.47,9.53,21.17,9.53s15.78-3.18,21.27-9.53Z"/>
        <path class="cls-1" d="M717.47,83.1c2.27,2.28,3.41,5.22,3.41,8.83v84.88c0,3.48-1.14,6.39-3.41,8.73-2.28,2.34-5.15,3.51-8.63,3.51s-6.32-1.13-8.53-3.41c-2.21-2.27-3.38-5.15-3.51-8.63-3.35,3.88-7.86,7.19-13.54,9.93-5.69,2.74-11.67,4.11-17.96,4.11-9.23,0-17.59-2.37-25.08-7.12-7.49-4.75-13.41-11.34-17.76-19.77-4.35-8.43-6.52-17.99-6.52-28.7s2.14-20.3,6.42-28.8c4.28-8.49,10.13-15.12,17.56-19.87,7.42-4.75,15.62-7.12,24.58-7.12,6.42,0,12.44,1.17,18.06,3.51,5.62,2.34,10.37,5.32,14.25,8.93v-.2c0-3.48,1.14-6.39,3.41-8.73,2.27-2.34,5.15-3.51,8.63-3.51s6.35,1.14,8.63,3.41Zm-27.89,76.35c5.48-6.35,8.23-14.35,8.23-23.98s-2.74-17.66-8.23-24.08c-5.49-6.42-12.58-9.63-21.27-9.63s-15.59,3.21-21.07,9.63c-5.49,6.42-8.23,14.45-8.23,24.08s2.71,17.63,8.13,23.98c5.42,6.36,12.47,9.53,21.17,9.53s15.78-3.18,21.27-9.53Z"/>
        <path class="cls-1" d="M803.86,169.09c1.54,1.81,2.31,4.18,2.31,7.12,0,3.61-1.98,6.66-5.92,9.13-3.95,2.48-8.4,3.71-13.34,3.71-8.3,0-15.29-1.77-20.97-5.32-5.69-3.54-8.53-11.07-8.53-22.58v-55.38h-9.23c-3.21,0-5.89-1.07-8.03-3.21-2.14-2.14-3.21-4.82-3.21-8.03s1.07-5.65,3.21-7.73c2.14-2.07,4.82-3.11,8.03-3.11h9.23v-12.84c0-3.48,1.17-6.39,3.51-8.73,2.34-2.34,5.25-3.51,8.73-3.51s6.15,1.17,8.43,3.51c2.27,2.34,3.41,5.25,3.41,8.73v12.84h14.25c3.21,0,5.89,1.07,8.03,3.21,2.14,2.14,3.21,4.82,3.21,8.03s-1.07,5.65-3.21,7.73c-2.14,2.08-4.82,3.11-8.03,3.11h-14.25v54.38c0,2.81,.73,4.85,2.21,6.12,1.47,1.27,3.48,1.91,6.02,1.91,1.07,0,2.54-.27,4.41-.8,1.61-.67,3.14-1,4.62-1,1.87,0,3.58,.9,5.12,2.71Z"/>
        <path class="cls-1" d="M924.56,83.1c2.27,2.28,3.41,5.22,3.41,8.83v84.88c0,3.48-1.14,6.39-3.41,8.73-2.28,2.34-5.15,3.51-8.63,3.51s-6.32-1.13-8.53-3.41c-2.21-2.27-3.38-5.15-3.51-8.63-3.35,3.88-7.86,7.19-13.54,9.93-5.69,2.74-11.67,4.11-17.96,4.11-9.23,0-17.59-2.37-25.08-7.12-7.49-4.75-13.41-11.34-17.76-19.77-4.35-8.43-6.52-17.99-6.52-28.7s2.14-20.3,6.42-28.8c4.28-8.49,10.13-15.12,17.56-19.87,7.42-4.75,15.62-7.12,24.58-7.12,6.42,0,12.44,1.17,18.06,3.51,5.62,2.34,10.37,5.32,14.25,8.93v-.2c0-3.48,1.14-6.39,3.41-8.73,2.27-2.34,5.15-3.51,8.63-3.51s6.35,1.14,8.63,3.41Zm-27.89,76.35c5.48-6.35,8.23-14.35,8.23-23.98s-2.74-17.66-8.23-24.08c-5.49-6.42-12.58-9.63-21.27-9.63s-15.59,3.21-21.07,9.63c-5.49,6.42-8.23,14.45-8.23,24.08s2.71,17.63,8.13,23.98c5.42,6.36,12.47,9.53,21.17,9.53s15.78-3.18,21.27-9.53Z"/>
      </g>
      <g>
        <path class="cls-1" d="M228.99,138.63c-8.09-13.44-7.18-34.84,.49-42.26,2.42,14.31,2.07,28-.49,42.26Z"/>
        <path class="cls-1" d="M203.45,43.35c-3.91,4.26-8.26,8.1-12.51,12.04-.54,.51-1.51,.54-1.87,.66-2.09,.04-3.41-.62-4.19-2.03-1.04-1.9-1-3.94,.32-5.63,3.27-4.2,7.1-7.87,11.22-11.23,2.13-1.73,3.75-.34,5.06,1.28,1.14,1.43,3.86,2.85,1.97,4.91Z"/>
        <path class="cls-1" d="M213.02,104.66c-2.23,9.81-1.57,19.51,1.35,29.07,1.85,6.04,3.28,12.3,5.92,17.99,3.45,7.38,.69,13.02-4.04,20.09-5.05-20.45-15.12-38.17-14.03-58.68,.75-13.94,5.47-26.3,14.62-36.84,1.42-1.64,2.59-4.96,5.75-3.27,2.47,1.33,3.03,7.54,1.07,9.89-5.32,6.4-8.81,13.66-10.64,21.75Z"/>
        <path class="cls-1" d="M215.18,61.37c-.72,1.09-1.85,1.9-2.8,2.84-14.26,14.1-21.44,31.44-23.13,51.19-.4,4.67,.92,9.25,2.05,13.78,4.19,16.81,10.19,33.08,15.41,49.57,1.62,5.11,.25,8.61-3.12,12.09-1.93,1.99-3.04,1.65-3.79-.85-1.05-3.51-2.08-7.02-3.1-10.53-5.09-17.58-12.08-34.59-15.76-52.59-.7-3.41-1.11-6.89-1.53-9.55,1.93-25.02,10.66-46.01,28.94-62.52,1.21-1.09,2.68-3.5,4.45-1.24,1.7,2.15,4.62,4.38,2.38,7.81Z"/>
        <path class="cls-1" d="M186.4,207.24c-2.23,1.48-3.63,1.44-4.29-1.44-5.98-25.8-16.89-50.17-22.14-76.18-.86-4.23-1.25-8.55-1.71-11.77,.91-15.51,3.81-29.44,9.84-42.63,1.33-2.91,3.21-5.52,6.87-3.86,3.56,1.62,3.07,4.74,1.84,7.73-3.96,9.59-6.7,19.45-8.16,29.76-1.41,9.85,.45,19.22,2.93,28.56,5.39,20.27,13.02,39.87,18.46,60.13,1.21,4.53-.03,7.3-3.64,9.7Z"/>
        <path class="cls-1" d="M188.25,25.86c-2.95-4.02-6.28-4.39-9.93-.96-14.2,13.34-24.87,29.08-31.85,47.27-1.84,4.81-3.24,9.8-4.92,14.68-.36,1.07-.26,3.12-2.41,2.04-3.49-1.74-6.97-10.73-5.67-14.56,7.07-20.86,18.29-39.15,33.83-54.8,1.4-1.42,4.34-2.54,3.15-5.03-.99-2.07-3.71-2.72-5.95-3.34-2.59-.72-3.9,1.48-5.35,2.97-15.58,16.02-26.97,34.62-34.36,55.71-1.63,4.65-2.97,4.9-9.56,2.88-4.53-1.39-2.05-4.28-1.31-6.4,7.16-20.54,17.88-39.01,32.37-55.28,1.33-1.49,4.11-2.85,2.98-5.19-.94-1.94-3.79-1.65-5.84-2.24-3.08-.88-4.57,1.32-6.19,3.19-15.08,17.33-26.69,36.81-32.96,58.85-2.6,9.13-9.71,11.68-15.66,16.89-1.08-3,.06-5.2,.61-7.37,6.3-24.7,17.11-47.22,32.55-67.53,1.45-1.92,4.7-3.38,3.33-6.48-.76-1.72-9.34-.64-11.21,1.23-.94,.94-1.72,2.04-2.51,3.11-8.21,11.2-15.24,23.1-20.66,35.88-15.14,35.67-21.22,72.35-12.47,110.77,5.86,25.72,16.17,50.1,22.36,75.7,.12,.48,.32,.96,.58,1.38,1.82,2.9,4.69,2.23,7.2,1.75,2.88-.54,2.15-2.88,1.65-4.83-1.24-4.84-2.42-9.7-3.82-14.49-5.78-19.66-13.24-38.8-17.84-58.81-2.54-11.01-4.76-22.08-4.45-35.03,3.08,3.39,4.95,5.95,7.31,7.91,2.72,2.27,3.83,4.65,3.19,8.22-.73,4.09-.97,8.27-1.32,12.41-.29,3.35,.74,6.01,4.42,6.73,2.11,.42,3.12,1.72,3.63,3.63,6.24,23.34,15.52,45.77,20.67,69.43,.75,3.45,1.92,5.48,5.97,4.68,4.24-.85,4.13-3.4,3.41-6.73-2.81-12.88-6.83-25.41-10.85-37.94-2.96-9.19-5.82-18.42-8.61-27.67-.49-1.62-1.51-3.57,.81-4.85,3.85-2.12,9.56,.04,10.83,4.29,6.43,21.54,14.53,42.58,19.23,64.63,.6,2.8,1.4,5.27,5.21,4.28,3.36-.87,5.16-2.22,4.25-6.3-2.18-9.77-5.08-19.32-7.87-28.91-5.44-18.66-13.47-36.61-14.97-56.37-.32-4.22-.06-7.52,3.57-10.01,1.19-.83,1.95-2.86,3.55-2.34,1.57,.5,1.22,2.57,1.45,3.96,5.25,31.03,18.77,59.74,25.33,90.4,.51,2.4,1.84,2.72,4.06,1.97,4.51-1.53,5.47-4.18,4.35-8.82-5.55-22.86-13.91-44.86-20.44-67.42-5.61-19.38-4.87-38.46,.94-57.58,6.49-21.37,17.77-39.73,34.29-54.83,1.31-1.19,3.85-2.06,1.9-4.73Zm-59.83,96.28c-4.28,3.43-5.83,6.67-4.43,11.86,.81,3.02,.83,6.25,1.17,9.39,.31,2.91-.98,4.39-3.96,4.36-3.33-.04-6.66,0-9.99,0-2.99,0-5.99-.02-8.98,.02-3.03,.04-4.18-1.35-3.76-4.37,.58-4.11,.79-8.28,1.48-12.38,.57-3.37-.54-5.43-3.25-7.56-14.54-11.46-13.28-33.01,2.28-42.12,11.26-6.6,25.81-3.53,33.41,7.04,7.65,10.65,6.23,25.59-3.97,33.77Z"/>
        <path class="cls-1" d="M21.43,230.92c-2.83,.77-7,1.66-8.2-2.37C8.13,211.44-.5,195.25,.02,176.66c.33-11.46,.06-22.93,.06-34.4,3.95,28.67,13.03,55.92,21.96,83.21,.6,1.81,2.59,4.57-.61,5.45Z"/>
        <path class="cls-1" d="M62.76,231.19c-2.87,.22-4.91-.54-5.82-3.55-7.25-24.03-16.29-47.54-21.01-72.31-.22-1.14-.48-2.28-.54-3.44-.12-2.61,.84-4.64,3.63-5.15,2.95-.53,4.75,.95,5.58,3.73,.1,.32,.16,.65,.22,.97,4.5,23.45,12.74,45.81,19.78,68.52,.64,2.06,1.17,4.16,1.86,6.21,1.2,3.59,.38,5.57-3.7,5.02Z"/>
        <path class="cls-1" d="M83.1,30.73c-13.62,28.92-21.07,59.2-20.32,91.31,.46,20.2,5.6,39.49,11.46,58.64,4.58,14.96,9.31,29.89,13.86,44.87,.55,1.82,2.31,4.68-.94,5.41-3.02,.69-6.97,1.59-8.26-3.06-8.05-28.84-19.65-56.7-24.06-86.55-1.22-8.25-1.92-16.54-1.8-24.92,.83-40.41,12.14-77.7,33.6-111.94,2.31-3.69,7.27-5.45,11.28-3.96,3.36,1.26,.76,3-.02,4.17-5.56,8.32-10.53,16.96-14.8,26.03Z"/>
        <path class="cls-1" d="M72.96,4.74c-4.49,7.61-8.59,15.42-12.09,23.54-12.45,28.95-19.74,58.98-19.22,90.68,.07,3.81,.64,8.63-4.68,8.91-5.86,.31-4.58-4.93-4.89-8.5-.23-2.65-.05-5.33-.05-7.99,1.47-37.61,11.4-72.84,29.32-105.91C63.49,1.52,66.22-.03,70.56,.33c3.36,.28,4.14,1.45,2.4,4.41Z"/>
        <path class="cls-1" d="M43.33,231.06c-3.64,1.55-7.52-.22-8.7-4.06-4.82-15.59-10.23-30.98-14.59-46.72-5.68-20.49-8.84-41.31-9.48-62.54-.09-2.81,.29-5.64,.45-8.47,1.18-31.28,8.11-61.28,20.28-90.1,.64-1.52,1.34-3.07,2.29-4.41,1.28-1.8,3.17-2.44,5.29-1.6,2.13,.83,3.17,2.58,2.8,4.76-.33,1.94-1.04,3.84-1.81,5.67-12.25,29.02-18.97,59.32-19.58,90.75-.49,25.16,4.57,49.65,12.01,73.63,3.85,12.4,7.91,24.73,11.73,37.14,.59,1.92,2.74,4.49-.69,5.95Z"/>
        <path class="cls-1" d="M24.17,6.61C11.83,33.29,4.18,61.27,.17,90.49c0-14.98-.11-29.96,.09-44.93,.04-2.92,1.12-5.87,1.98-8.72,3.06-10.05,6.76-19.86,11.01-29.46,.74-1.68,1.39-3.47,2.51-4.88,2.49-3.15,6.28-2.87,9.11-1.47,2.71,1.34,.1,3.85-.7,5.58Z"/>
      </g>
    </g>
  </g>
</svg>